HIERARCHY
ROOT Hips
{
    OFFSET 0.000000 0.000000 0.000000
    CHANNELS 6 Xposition Yposition Zposition Zrotation Xrotation Yrotation
    JOINT Spine
    {
        OFFSET -0.000000 7.236184 0.000000
        CHANNELS 3 Zrotation Xrotation Yrotation
        JOINT Spine1
        {
            OFFSET -0.000000 20.420147 0.000000
            CHANNELS 3 Zrotation Xrotation Yrotation
            JOINT Neck
            {
                OFFSET -0.000000 20.336288 1.848754
                CHANNELS 3 Zrotation Xrotation Yrotation
                JOINT Head
                {
                    OFFSET -0.000000 12.354461 -1.764923
                    CHANNELS 3 Zrotation Xrotation Yrotation
                    End Site
                    {
                        OFFSET -0.000000 22.061537 0.000000
                    }
                }
            }
            JOINT LeftShoulder
            {
                OFFSET 3.573296 18.396038 -0.314103
                CHANNELS 3 Zrotation Xrotation Yrotation
                JOINT LeftArm
                {
                    OFFSET 10.880760 0.000000 0.000000
                    CHANNELS 3 Zrotation Xrotation Yrotation
                    JOINT LeftForeArm
                    {
                        OFFSET 27.185530 0.000000 0.000000
                        CHANNELS 3 Zrotation Xrotation Yrotation
                        JOINT LeftHand
                        {
                            OFFSET 27.825975 0.000000 0.000000
                            CHANNELS 3 Zrotation Xrotation Yrotation
                            End Site
                            {
                                OFFSET 13.236923 0.000000 0.000000
                            }
                        }
                    }
                }
            }
            JOINT RightShoulder
            {
                OFFSET -3.474926 18.396038 -0.314103
                CHANNELS 3 Zrotation Xrotation Yrotation
                JOINT RightArm
                {
                    OFFSET -10.880760 0.000000 0.000000
                    CHANNELS 3 Zrotation Xrotation Yrotation
                    JOINT RightForeArm
                    {
                        OFFSET -27.185530 0.000000 0.000000
                        CHANNELS 3 Zrotation Xrotation Yrotation
                        JOINT RightHand
                        {
                            OFFSET -27.825975 0.000000 0.000000
                            CHANNELS 3 Zrotation Xrotation Yrotation
                            End Site
                            {
                                OFFSET -13.236923 0.000000 0.000000
                            }
                        }
                    }
                }
            }
        }
    }
    JOINT LeftUpLeg
    {
        OFFSET 8.824615 0.000000 0.000000
        CHANNELS 3 Zrotation Xrotation Yrotation
        JOINT LeftLeg
        {
            OFFSET -0.000000 -35.111282 0.000000
            CHANNELS 3 Zrotation Xrotation Yrotation
            JOINT LeftFoot
            {
                OFFSET -0.000000 -42.324711 0.000000
                CHANNELS 3 Zrotation Xrotation Yrotation
                JOINT LeftToeBase
                {
                    OFFSET -0.000000 -5.735999 13.236923
                    CHANNELS 3 Zrotation Xrotation Yrotation
                    End Site
                    {
                        OFFSET -0.000000 0.000000 3.529846
                    }
                }
            }
        }
    }
    JOINT RightUpLeg
    {
        OFFSET -8.824615 0.000000 0.000000
        CHANNELS 3 Zrotation Xrotation Yrotation
        JOINT RightLeg
        {
            OFFSET -0.000000 -35.111282 0.000000
            CHANNELS 3 Zrotation Xrotation Yrotation
            JOINT RightFoot
            {
                OFFSET -0.000000 -42.324711 0.000000
                CHANNELS 3 Zrotation Xrotation Yrotation
                JOINT RightToeBase
                {
                    OFFSET -0.000000 -5.735999 13.236923
                    CHANNELS 3 Zrotation Xrotation Yrotation
                    End Site
                    {
                        OFFSET -0.000000 0.000000 3.529846
                    }
                }
            }
        }
    }
}
MOTION
Frames:    9
Frame Time:    0.008333
9.835270    80.307770    111.907562    -2.087072    -6.946413    -179.443481    -2.961433    -12.757197    -0.027200    1.193904    5.076389    0.251087    1.522574    7.732062    0.473357    1.600049    1.863381    0.575283    1.461004    17.397011    -1.864249    -53.742184    43.757320    -32.894897    -2.030566    -9.641703    -15.515865    23.286825    -9.105994    3.976085    6.533082    18.001501    -6.224430    44.067554    43.014122    35.568359    2.549751    -20.279078    32.010929    -18.708019    -19.204792    -11.332105    3.499416    -20.816410    5.577079    -5.434969    28.814009    23.470528    -2.547449    -9.120239    -8.908221    -0.355885    -0.900041    0.395131    -4.873001    -0.103492    -4.388465    4.694111    3.089869    1.387299    -1.490972    -7.096028    -17.589405    -0.773630    -0.150990    0.836913
9.791203    80.290855    111.921021    -1.983742    -6.974283    -179.236740    -2.955566    -12.718355    -0.019626    1.239899    5.077350    0.254845    1.484088    7.754852    0.428134    1.603659    1.851094    0.532206    1.465079    17.432360    -1.814392    -54.163578    43.600395    -32.396149    -2.116916    -9.965940    -15.408615    23.396349    -9.407775    4.116327    6.486548    17.958820    -6.200857    43.896015    43.020771    35.665409    2.504578    -20.176588    33.175400    -18.833622    -19.095547    -11.381713    3.528961    -21.097958    5.815476    -5.652168    29.114786    24.273409    -2.427494    -9.144176    -8.854313    -0.371576    -1.008529    0.412634    -4.793732    -0.100574    -4.495293    4.682233    3.082667    1.308335    -1.449287    -7.123457    -17.609947    -0.788225    -0.136763    0.852685
9.745066    80.273232    111.930634    -1.873081    -7.000960    -179.020477    -2.947957    -12.683022    -0.010990    1.289693    5.076782    0.259723    1.446431    7.781525    0.381492    1.604342    1.843045    0.487155    1.468528    17.471102    -1.761407    -54.603134    43.441803    -31.870821    -2.206855    -10.281963    -15.305536    23.482386    -9.701788    4.259488    6.442590    17.915525    -6.182753    43.717896    43.021019    35.769894    2.446191    -20.049572    34.364559    -18.944033    -18.961227    -11.416212    3.555748    -21.367338    6.071214    -5.862698    29.393597    25.082500    -2.300061    -9.177837    -8.780773    -0.387079    -1.107243    0.429927    -4.707307    -0.096123    -4.609567    4.667286    3.081759    1.224183    -1.401193    -7.157201    -17.627165    -0.807681    -0.119385    0.873711
9.696737    80.254868    111.935936    -1.755405    -7.025465    -178.793839    -2.937603    -12.650912    -0.000471    1.339626    5.074731    0.266026    1.412717    7.812695    0.333048    1.601402    1.838258    0.439359    1.474032    17.514259    -1.706685    -55.060532    43.278873    -31.320990    -2.300329    -10.583534    -15.204313    23.543081    -9.982449    4.402823    6.404026    17.872042    -6.170170    43.536556    43.011318    35.879570    2.376249    -19.899748    35.573765    -19.041838    -18.803129    -11.437254    3.578087    -21.621567    6.343093    -6.062579    29.647470    25.886837    -2.165740    -9.222269    -8.684743    -0.402194    -1.193833    0.446787    -4.614231    -0.089795    -4.731437    4.649474    3.088953    1.135083    -1.346745    -7.198163    -17.641727    -0.830831    -0.100215    0.898730
9.645954    80.235672    111.936440    -1.630491    -7.046775    -178.555008    -2.924331    -12.622249    0.012400    1.388745    5.072719    0.274310    1.383394    7.847482    0.281826    1.595135    1.836891    0.388175    1.481844    17.562027    -1.650599    -55.534710    43.109955    -30.747478    -2.397565    -10.866527    -15.103102    23.577089    -10.246332    4.543722    6.371313    17.827879    -6.163852    43.353851    42.991032    35.993538    2.294716    -19.729519    36.803326    -19.128853    -18.622709    -11.446919    3.594567    -21.858269    6.629829    -6.248685    29.874443    26.678091    -2.024267    -9.278949    -8.565156    -0.417491    -1.266170    0.463842    -4.514572    -0.081165    -4.860885    4.628957    3.106660    1.041504    -1.285898    -7.247820    -17.655642    -0.856610    -0.079741    0.926589
9.592978    80.215729    111.931816    -1.498854    -7.064055    -178.304398    -2.907165    -12.596947    0.027955    1.434267    5.070874    0.285371    1.360697    7.885018    0.227914    1.585096    1.839212    0.332760    1.493367    17.614700    -1.594764    -56.020729    42.934494    -30.156435    -2.497521    -11.124445    -15.000408    23.583309    -10.487822    4.677452    6.346399    17.783421    -6.164093    43.173450    42.959927    36.109138    2.201517    -19.543039    38.041836    -19.203810    -18.423685    -11.445251    3.604499    -22.073988    6.926655    -6.417077    30.072067    27.441557    -1.876858    -9.349519    -8.424173    -0.434235    -1.321656    0.482493    -4.408653    -0.070743    -4.996659    4.605747    3.137311    0.943220    -1.219069    -7.306901    -17.669300    -0.883320    -0.059319    0.955454
9.537416    80.194916    111.921860    -1.359279    -7.077163    -178.039261    -2.886083    -12.575127    0.046743    1.477057    5.069867    0.299586    1.343449    7.924678    0.169820    1.572137    1.845083    0.272754    1.507325    17.672501    -1.539354    -56.518463    42.750420    -29.546534    -2.599983    -11.354469    -14.893584    23.561256    -10.704699    4.801253    6.328331    17.738543    -6.171261    42.996780    42.918129    36.226139    2.094789    -19.342480    39.293491    -19.264742    -18.207510    -11.431218    3.607845    -22.269051    7.232008    -6.566833    30.241604    28.172724    -1.722938    -9.436747    -8.262799    -0.453282    -1.358561    0.503692    -4.295400    -0.059911    -5.139153    4.579475    3.184537    0.838929    -1.145940    -7.377003    -17.683430    -0.909834    -0.039194    0.984106
9.479451    80.173279    111.906456    -1.212317    -7.085684    -177.759598    -2.861284    -12.556670    0.069153    1.516373    5.069481    0.316852    1.332320    7.965212    0.108469    1.556352    1.855398    0.206700    1.523297    17.735334    -1.484975    -57.022991    42.557446    -28.923365    -2.703062    -11.550298    -14.780113    23.511177    -10.891363    4.910216    6.317827    17.693357    -6.185028    42.826603    42.867409    36.341892    1.973470    -19.133108    40.548370    -19.306618    -17.979586    -11.401452    3.604193    -22.441412    7.540061    -6.695162    30.382233    28.858635    -1.563748    -9.542027    -8.083660    -0.473835    -1.374172    0.526546    -4.175152    -0.050402    -5.287602    4.549889    3.251972    0.728017    -1.067180    -7.458820    -17.697809    -0.934130    -0.020706    1.010360
9.419211    80.150795    111.885666    -1.058774    -7.089401    -177.465439    -2.834140    -12.541509    0.094686    1.553454    5.069632    0.337568    1.326464    8.006224    0.041714    1.537844    1.869956    0.136387    1.539671    17.803535    -1.431779    -57.529575    42.354134    -28.292662    -2.804859    -11.705749    -14.657355    23.434544    -11.042089    5.000471    6.313533    17.648949    -6.204869    42.664913    42.809921    36.455666    1.836273    -18.921238    41.797226    -19.322773    -17.746347    -11.351322    3.593333    -22.590294    7.844291    -6.800889    30.494673    29.488955    -1.400048    -9.666351    -7.889125    -0.494649    -1.366337    0.549667    -4.048866    -0.044198    -5.440939    4.517242    3.343441    0.610642    -0.984194    -7.552748    -17.713285    -0.954311    -0.005215    1.032165
